<?xml version="1.0" encoding="UTF-8" standalone="no"?>
<!-- Created with Inkscape (http://www.inkscape.org/) -->

<svg
   width="212.27866"
   height="227.7919"
   viewBox="0 0 212.27866 227.7919"
   version="1.1"
   id="svg1"
   inkscape:version="1.3.1 (91b66b0783, 2023-11-16)"
   sodipodi:docname="logo.svg"
   xmlns:inkscape="http://www.inkscape.org/namespaces/inkscape"
   xmlns:sodipodi="http://sodipodi.sourceforge.net/DTD/sodipodi-0.dtd"
   xmlns:xlink="http://www.w3.org/1999/xlink"
   xmlns="http://www.w3.org/2000/svg"
   xmlns:svg="http://www.w3.org/2000/svg">
  <sodipodi:namedview
     id="namedview1"
     pagecolor="#ffffff"
     bordercolor="#666666"
     borderopacity="1.0"
     inkscape:showpageshadow="2"
     inkscape:pageopacity="0.0"
     inkscape:pagecheckerboard="0"
     inkscape:deskcolor="#d1d1d1"
     inkscape:document-units="px"
     inkscape:zoom="1.0847363"
     inkscape:cx="404.70665"
     inkscape:cy="93.571127"
     inkscape:window-width="1920"
     inkscape:window-height="1057"
     inkscape:window-x="-8"
     inkscape:window-y="-8"
     inkscape:window-maximized="1"
     inkscape:current-layer="layer1" />
  <defs
     id="defs1">
    <linearGradient
       id="linearGradient44"
       inkscape:collect="always">
      <stop
         style="stop-color:#18d9f0;stop-opacity:1;"
         offset="0"
         id="stop44" />
      <stop
         style="stop-color:#18d9f0;stop-opacity:0;"
         offset="1"
         id="stop45" />
    </linearGradient>
    <inkscape:path-effect
       effect="simplify"
       id="path-effect5"
       is_visible="true"
       lpeversion="1.3"
       threshold="10.8696"
       steps="1"
       smooth_angles="360"
       helper_size="0"
       simplify_individual_paths="false"
       simplify_just_coalesce="false" />
    <inkscape:path-effect
       effect="simplify"
       id="path-effect4"
       is_visible="true"
       lpeversion="1.3"
       threshold="10.8696"
       steps="1"
       smooth_angles="360"
       helper_size="0"
       simplify_individual_paths="false"
       simplify_just_coalesce="false" />
    <filter
       inkscape:collect="always"
       style="color-interpolation-filters:sRGB"
       id="filter19"
       x="-0.0079650963"
       y="-0.0074146073"
       width="1.0159302"
       height="1.0148292">
      <feGaussianBlur
         inkscape:collect="always"
         stdDeviation="0.69346137"
         id="feGaussianBlur19" />
    </filter>
    <linearGradient
       inkscape:collect="always"
       xlink:href="#linearGradient44"
       id="linearGradient45"
       x1="803.14386"
       y1="627.34277"
       x2="1015.4225"
       y2="627.34277"
       gradientUnits="userSpaceOnUse" />
  </defs>
  <g
     inkscape:label="圖層 1"
     inkscape:groupmode="layer"
     id="layer1"
     transform="translate(-803.14388,-513.44682)">
    <path
       style="opacity:0.9;fill:url(#linearGradient45);stroke:none;stroke-width:0.501;stroke-linecap:round;stroke-linejoin:round;stroke-dasharray:none;stroke-opacity:0.85;filter:url(#filter19)"
       id="path10"
       d="m 937.68392,515.11113 c -41.07365,20.01635 -77.2289,50.00797 -105.42432,85.88801 -12.58149,17.15698 -25.11385,36.12486 -27.34843,57.7715 -2.28926,21.59592 33.73018,35.68708 94.01849,-13.85616 14.46979,-21.46215 -95.32186,24.01565 -81.12363,71.21784 5.03302,16.54105 23.6668,27.65767 40.45386,21.91137 23.20173,-7.46841 49.59435,-44.63182 62.64635,-61.48863 9.97162,-16.2145 31.20755,-34.01521 20.20755,-47.01437 -15.64588,-18.4894 -56.64511,62.5839 -46.38107,88.71169 5.3278,10.86639 12.38543,17.69941 30.90053,15.56623 18.5151,-2.13318 53.71231,-71.95805 57.3747,-87.7339 1.61869,-25.30785 -49.25082,35.66272 -11.99124,65.82555 9.05345,7.32906 30.18789,-8.68075 40.15259,-19.72122 6.7611,-9.20157 -0.7293,-12.1408 -10.8502,-2.80168 -63.48481,58.5808 6.4163,-106.25009 -61.26108,13.92959 -6.25475,11.46296 -24.25409,22.81122 -27.992,12.3869 -3.73791,-10.42432 -3.85595,-24.37563 -2.09515,-28.96094 1.76079,-4.58532 -1.46336,-20.40924 -8.39524,-11.58867 -6.93189,8.82057 -26.80788,38.10465 -47.96007,47.67142 -10.89564,6.10686 -22.85646,-3.66917 -21.93708,-15.71816 3.79367,-49.71792 82.78118,-54.00567 67.65607,-70.3793 -15.12511,-16.37363 -86.12537,45.56031 -74.39716,24.05849 16.98309,-42.49502 49.45695,-76.29926 84.41424,-104.77517 12.61523,-10.4843 25.51548,-20.61845 38.21719,-30.99675 -1.97439,-3.80226 -5.31866,-7.52952 -8.8849,-9.90364 z"
       sodipodi:nodetypes="cccccccsczczczzzzzcszcccc" />
  </g>
</svg>
